<svg width="24" height="24" viewBox="0 0 24 24" fill="none" xmlns="http://www.w3.org/2000/svg">
<path d="M16 11.1719C17.66 11.1719 18.99 9.83187 18.99 8.17188C18.99 6.51188 17.66 5.17188 16 5.17188C14.34 5.17188 13 6.51188 13 8.17188C13 9.83187 14.34 11.1719 16 11.1719ZM8 11.1719C9.66 11.1719 10.99 9.83187 10.99 8.17188C10.99 6.51188 9.66 5.17188 8 5.17188C6.34 5.17188 5 6.51188 5 8.17188C5 9.83187 6.34 11.1719 8 11.1719ZM8 13.1719C5.67 13.1719 1 14.3419 1 16.6719V18.1719C1 18.7219 1.45 19.1719 2 19.1719H14C14.55 19.1719 15 18.7219 15 18.1719V16.6719C15 14.3419 10.33 13.1719 8 13.1719ZM16 13.1719C15.71 13.1719 15.38 13.1919 15.03 13.2219C15.05 13.2319 15.06 13.2519 15.07 13.2619C16.21 14.0919 17 15.2019 17 16.6719V18.1719C17 18.5219 16.93 18.8619 16.82 19.1719H22C22.55 19.1719 23 18.7219 23 18.1719V16.6719C23 14.3419 18.33 13.1719 16 13.1719Z" fill="#8AC0AD"/>
</svg>
