<svg width="24" height="24" viewBox="0 0 24 24" fill="none" xmlns="http://www.w3.org/2000/svg">
<path d="M8.5155 3.5C5.9055 3.5 4 6.2265 4 9.1665C4 9.9565 4.123 10.713 4.34 11.4315C4.44667 11.7832 4.57383 12.1255 4.7215 12.4585C6.775 17.1025 12.5 19.9335 12.5 19.9335C12.5 19.9335 13.7665 19.2665 15.322 18.0865C14.337 17.3905 12.975 16.213 12.318 14.676C12.2388 14.4913 12.1709 14.3019 12.1145 14.109C11.9951 13.7034 11.9342 13.2828 11.9335 12.86C11.9335 11.2375 12.95 9.7335 14.3415 9.7335C15.3075 9.7335 16.024 10.4085 16.4665 11.3655C16.909 10.4085 17.626 9.7335 18.5915 9.7335C19.5125 9.7335 20.2685 10.3915 20.675 11.3065C20.8825 10.6215 21 9.9065 21 9.1665C21 6.2265 19.0945 3.5 16.4845 3.5C14.6735 3.5 13.3295 4.7235 12.5 6.4585C11.6705 4.7235 10.3265 3.5 8.5155 3.5ZM20.228 12.5505C20.3024 12.5515 20.3759 12.5672 20.4443 12.5967C20.5127 12.6262 20.5746 12.6688 20.6264 12.7222C20.6783 12.7756 20.7191 12.8387 20.7466 12.9079C20.7741 12.9771 20.7876 13.0511 20.7865 13.1255C20.7615 14.9805 19.864 16.243 18.992 17.0255C18.6291 17.3499 18.231 17.6325 17.805 17.868C17.6384 17.96 17.4672 18.0433 17.292 18.1175C17.2773 18.1228 17.2658 18.1275 17.2575 18.1315L17.247 18.1355L17.243 18.137L17.2415 18.1375C17.1023 18.1847 16.9503 18.176 16.8174 18.1132C16.6845 18.0505 16.5811 17.9386 16.5291 17.8011C16.4771 17.6637 16.4805 17.5114 16.5386 17.3764C16.5967 17.2414 16.7049 17.1342 16.8405 17.0775L16.843 17.0765L16.861 17.069L16.943 17.034C17.413 16.8151 17.8483 16.5283 18.235 16.183C18.9415 15.548 19.6335 14.5655 19.6535 13.1095C19.6545 13.0351 19.6701 12.9615 19.6995 12.8932C19.7289 12.8248 19.7715 12.7628 19.8249 12.7109C19.8782 12.659 19.9413 12.6181 20.0105 12.5906C20.0796 12.5631 20.1536 12.5494 20.228 12.5505Z" fill="#8AC0AD"/>
</svg>
