<svg width="24" height="24" viewBox="0 0 24 24" fill="none" xmlns="http://www.w3.org/2000/svg">
<path d="M6 5.5H18C18.1326 5.5 18.2597 5.55272 18.3535 5.64648C18.4473 5.74025 18.5 5.86739 18.5 6V18C18.5 18.1326 18.4473 18.2597 18.3535 18.3535C18.2597 18.4473 18.1326 18.5 18 18.5H6C5.86739 18.5 5.74025 18.4473 5.64648 18.3535C5.55272 18.2597 5.5 18.1326 5.5 18V6C5.5 5.86739 5.55272 5.74025 5.64648 5.64648C5.74025 5.55272 5.86739 5.5 6 5.5ZM13.749 10.9834C13.5753 10.9835 13.4048 11.0291 13.2539 11.1152C13.103 11.2014 12.9771 11.325 12.8887 11.4746L11.2168 14.3027L10.3477 12.9131C10.2578 12.7693 10.1327 12.6506 9.98438 12.5684C9.83611 12.4862 9.66949 12.4434 9.5 12.4434C9.33051 12.4434 9.16389 12.4862 9.01562 12.5684C8.86731 12.6506 8.74223 12.7693 8.65234 12.9131L7.05371 15.4697C6.95716 15.6242 6.90793 15.799 6.90332 15.9736C6.89864 16.152 6.9419 16.3283 7.02832 16.4844C7.11484 16.6405 7.24174 16.7707 7.39551 16.8613C7.54931 16.9519 7.72482 17 7.90332 17H11.0967C11.143 17 11.1896 16.9966 11.2354 16.9902L11.375 17H16.125C16.3011 16.9997 16.4738 16.9528 16.626 16.8643C16.7783 16.7756 16.9049 16.6482 16.9922 16.4951C17.0793 16.3423 17.1242 16.1691 17.123 15.9932C17.1218 15.817 17.0739 15.644 16.9844 15.4922V15.4912L14.6104 11.4746C14.522 11.325 14.396 11.2014 14.2451 11.1152C14.0941 11.0291 13.9229 10.9834 13.749 10.9834ZM9.5 7.5C8.96957 7.5 8.46101 7.71086 8.08594 8.08594C7.71086 8.46101 7.5 8.96957 7.5 9.5C7.5 10.0304 7.71086 10.539 8.08594 10.9141C8.46101 11.2891 8.96957 11.5 9.5 11.5C10.0304 11.5 10.539 11.2891 10.9141 10.9141C11.2891 10.539 11.5 10.0304 11.5 9.5C11.5 8.96957 11.2891 8.46101 10.9141 8.08594C10.539 7.71086 10.0304 7.5 9.5 7.5Z" fill="#C7C8D5" stroke="#C7C8D5"/>
</svg>
