<svg width="19" height="24" viewBox="0 0 19 24" fill="none" xmlns="http://www.w3.org/2000/svg">
<path d="M9.5 0.5C14.4568 0.5 18.4998 4.57778 18.5 9.59961V9.60254C18.5162 13.2726 16.2497 16.7527 13.8916 19.3633C12.7218 20.6583 11.5494 21.7176 10.6689 22.4531C10.229 22.8206 9.86252 23.1065 9.60742 23.2998C9.56914 23.3288 9.53216 23.3541 9.49902 23.3789C8.77244 22.8432 6.85511 21.3642 4.97363 19.2666C2.66429 16.6919 0.483808 13.2738 0.5 9.59668V9.59375C0.500134 4.57806 4.54294 0.500001 9.5 0.5ZM9.5 4.2998C6.59471 4.29981 4.25021 6.6766 4.25 9.59961C4.25 12.5228 6.59458 14.9004 9.5 14.9004C12.4054 14.9004 14.75 12.5228 14.75 9.59961C14.7498 6.6766 12.4053 4.2998 9.5 4.2998Z" fill="#C7C8D5" stroke="#C7C8D5"/>
</svg>
