<svg width="24" height="24" viewBox="0 0 24 24" fill="none" xmlns="http://www.w3.org/2000/svg">
<path d="M12 0.5C12.8118 0.5 13.4911 0.794026 14.0654 1.40234C14.6407 2.01174 14.9287 2.7453 14.9287 3.63184V10.8945C14.9287 11.7811 14.6407 12.5146 14.0654 13.124C13.4911 13.7323 12.8118 14.0264 12 14.0264C11.1882 14.0264 10.5089 13.7323 9.93457 13.124C9.35929 12.5146 9.07129 11.7811 9.07129 10.8945V3.63184C9.07129 2.7453 9.35931 2.01174 9.93457 1.40234C10.5089 0.794026 11.1882 0.5 12 0.5ZM11.3574 18.8438L10.9277 18.7822C9.07506 18.5181 7.54918 17.6464 6.33105 16.1475C5.21318 14.7718 4.60852 13.1931 4.51465 11.3945H5.80371C5.90633 12.9812 6.50187 14.3638 7.59375 15.5205C8.79994 16.7981 10.278 17.4481 12 17.4473C13.7218 17.4464 15.2003 16.7961 16.4072 15.5195C17.4999 14.3635 18.0948 12.9812 18.1963 11.3945H19.4854C19.3915 13.1931 18.7868 14.7718 17.6689 16.1475C16.4508 17.6464 14.9249 18.5181 13.0723 18.7822L12.6426 18.8438V22.5H11.3574V18.8438Z" fill="#C7C8D5" stroke="#C7C8D5"/>
</svg>
