<svg width="24" height="24" viewBox="0 0 24 24" fill="none" xmlns="http://www.w3.org/2000/svg">
<path d="M14.3426 14.0069L15.4068 14.1186V22.7812L12.4672 19.6423V14.6484L13.321 15.0653L14.3426 14.0069ZM9.6574 14.0069L8.59259 14.1186V22.7812L11.5322 19.6423V14.6484L10.6784 15.0653L9.6574 14.0069ZM17.719 8.57972L18.0634 9.7785L17.0295 10.4755L16.9429 11.721L15.7331 12.0222L15.2267 13.1619L13.9864 13.0309L13.1204 13.9256L12 13.3783L10.8796 13.9256L10.0136 13.028L8.77324 13.159L8.26685 12.0193L7.05701 11.721L6.97043 10.4773L5.93365 9.77789L6.27809 8.57916L5.54712 7.56928L6.28043 6.56053L5.93365 5.36414L6.96809 4.66711L7.05467 3.42328L8.26685 3.12506L8.77324 1.98539L10.0136 2.11636L10.8796 1.21875L12 1.76611L13.1204 1.21875L13.9864 2.11636L15.2267 1.98539L15.7331 3.12506L16.9429 3.42623L17.0295 4.67002L18.0634 5.36705L17.719 6.56583L18.4528 7.56928L17.719 8.57972ZM15.4121 7.56928C15.4121 6.89953 15.2135 6.24481 14.8414 5.68793C14.4693 5.13105 13.9404 4.69701 13.3216 4.44071C12.7028 4.1844 12.022 4.11734 11.3651 4.248C10.7082 4.37867 10.1048 4.70119 9.63121 5.17477C9.15762 5.64836 8.8351 6.25175 8.70444 6.90864C8.57377 7.56552 8.64083 8.24641 8.89714 8.86518C9.15344 9.48395 9.58748 10.0128 10.1444 10.3849C10.7012 10.757 11.356 10.9556 12.0257 10.9556C12.9234 10.9542 13.7839 10.597 14.4187 9.96224C15.0534 9.32748 15.4107 8.46697 15.4121 7.56928ZM12.0257 5.11852C11.541 5.11852 11.0672 5.26225 10.6642 5.53153C10.2612 5.80082 9.94704 6.18357 9.76155 6.63137C9.57606 7.07918 9.52752 7.57194 9.62208 8.04733C9.71664 8.52272 9.95004 8.9594 10.2928 9.30214C10.6355 9.64488 11.0722 9.87829 11.5476 9.97286C12.023 10.0674 12.5157 10.0189 12.9635 9.83342C13.4113 9.64793 13.7941 9.33383 14.0634 8.93081C14.3327 8.5278 14.4764 8.05399 14.4764 7.56928C14.4746 6.92004 14.2157 6.29795 13.7565 5.83903C13.2972 5.38011 12.675 5.12169 12.0257 5.1203V5.11852Z" fill="#8AC0AD"/>
</svg>
