<svg width="20" height="20" viewBox="0 0 20 20" fill="none" xmlns="http://www.w3.org/2000/svg">
<path d="M11.0625 14.5833H13.0625V14.5208L9.62496 10.875L9.64579 10.8125H9.85413C10.6041 10.8125 11.2258 10.5833 11.7191 10.125C12.2125 9.66666 12.5144 9.13194 12.625 8.52082H13.4583V7.54166H12.6041C12.5625 7.33332 12.4897 7.13555 12.3858 6.94832C12.2819 6.7611 12.1533 6.57693 12 6.39582H13.4583V5.41666H6.54163V6.60416H9.79163C10.1527 6.60416 10.448 6.69443 10.6775 6.87499C10.9069 7.05555 11.063 7.27777 11.1458 7.54166H6.54163V8.52082H11.1666C11.0833 8.7986 10.9236 9.03832 10.6875 9.23999C10.4513 9.44166 10.1319 9.54221 9.72913 9.54166H7.64579V10.875L11.0625 14.5833ZM9.99996 18.3333C8.84718 18.3333 7.76385 18.1144 6.74996 17.6767C5.73607 17.2389 4.85413 16.6453 4.10413 15.8958C3.35413 15.1464 2.76052 14.2644 2.32329 13.25C1.88607 12.2355 1.66718 11.1522 1.66663 9.99999C1.66607 8.84777 1.88496 7.76443 2.32329 6.74999C2.76163 5.73555 3.35524 4.8536 4.10413 4.10416C4.85302 3.35471 5.73496 2.7611 6.74996 2.32332C7.76496 1.88555 8.84829 1.66666 9.99996 1.66666C11.1516 1.66666 12.235 1.88555 13.25 2.32332C14.265 2.7611 15.1469 3.35471 15.8958 4.10416C16.6447 4.8536 17.2386 5.73555 17.6775 6.74999C18.1163 7.76443 18.335 8.84777 18.3333 9.99999C18.3316 11.1522 18.1127 12.2355 17.6766 13.25C17.2405 14.2644 16.6469 15.1464 15.8958 15.8958C15.1447 16.6453 14.2627 17.2392 13.25 17.6775C12.2372 18.1158 11.1538 18.3344 9.99996 18.3333ZM9.99996 16.6667C11.8611 16.6667 13.4375 16.0208 14.7291 14.7292C16.0208 13.4375 16.6666 11.8611 16.6666 9.99999C16.6666 8.13888 16.0208 6.56249 14.7291 5.27082C13.4375 3.97916 11.8611 3.33332 9.99996 3.33332C8.13885 3.33332 6.56246 3.97916 5.27079 5.27082C3.97913 6.56249 3.33329 8.13888 3.33329 9.99999C3.33329 11.8611 3.97913 13.4375 5.27079 14.7292C6.56246 16.0208 8.13885 16.6667 9.99996 16.6667Z" fill="#C7C8D5"/>
</svg>
