<svg width="24" height="24" viewBox="0 0 24 24" fill="none" xmlns="http://www.w3.org/2000/svg">
<path d="M4 6.5H16C16.1326 6.5 16.2597 6.55272 16.3535 6.64648C16.4473 6.74025 16.5 6.86739 16.5 7V11.707L20.5 7.70703V16.293L16.5 12.293V17C16.5 17.1326 16.4473 17.2597 16.3535 17.3535C16.2597 17.4473 16.1326 17.5 16 17.5H4C3.86739 17.5 3.74025 17.4473 3.64648 17.3535C3.55272 17.2597 3.5 17.1326 3.5 17V7C3.5 6.86739 3.55272 6.74025 3.64648 6.64648C3.74025 6.55272 3.86739 6.5 4 6.5Z" fill="#C7C8D5" stroke="#C7C8D5"/>
</svg>
