<svg width="20" height="20" viewBox="0 0 20 20" fill="none" xmlns="http://www.w3.org/2000/svg">
<path fill-rule="evenodd" clip-rule="evenodd" d="M12 0C12.7956 0 13.5587 0.316071 14.1213 0.87868C14.6839 1.44129 15 2.20435 15 3H18C18.5304 3 19.0391 3.21071 19.4142 3.58579C19.7893 3.96086 20 4.46957 20 5V15C20 15.5304 19.7893 16.0391 19.4142 16.4142C19.0391 16.7893 18.5304 17 18 17H2C1.46957 17 0.960859 16.7893 0.585786 16.4142C0.210714 16.0391 0 15.5304 0 15V5C0 4.46957 0.210714 3.96086 0.585786 3.58579C0.960859 3.21071 1.46957 3 2 3H5C5 2.20435 5.31607 1.44129 5.87868 0.87868C6.44129 0.316071 7.20435 0 8 0H12ZM6 4C5.75507 4.00003 5.51866 4.08996 5.33563 4.25272C5.15259 4.41547 5.03566 4.63975 5.007 4.883L5 5V15C5.00028 15.2549 5.09788 15.5 5.27285 15.6854C5.44782 15.8707 5.68695 15.9822 5.94139 15.9972C6.19584 16.0121 6.44638 15.9293 6.64183 15.7657C6.83729 15.6021 6.9629 15.3701 6.993 15.117L7 15V5C7 4.73478 6.89464 4.48043 6.70711 4.29289C6.51957 4.10536 6.26522 4 6 4ZM14 4C13.7348 4 13.4804 4.10536 13.2929 4.29289C13.1054 4.48043 13 4.73478 13 5V15C13 15.2652 13.1054 15.5196 13.2929 15.7071C13.4804 15.8946 13.7348 16 14 16C14.2652 16 14.5196 15.8946 14.7071 15.7071C14.8946 15.5196 15 15.2652 15 15V5C15 4.73478 14.8946 4.48043 14.7071 4.29289C14.5196 4.10536 14.2652 4 14 4ZM12 2H8C7.75507 2.00003 7.51866 2.08996 7.33563 2.25272C7.15259 2.41547 7.03566 2.63975 7.007 2.883L7 3H13C13 2.75507 12.91 2.51866 12.7473 2.33563C12.5845 2.15259 12.3603 2.03566 12.117 2.007L12 2Z" fill="#388896"/>
</svg>
