<svg width="24" height="24" viewBox="0 0 24 24" fill="none" xmlns="http://www.w3.org/2000/svg">
<path d="M4.98438 14.5029H7C7.13259 14.5029 7.25975 14.5557 7.35352 14.6494C7.44726 14.7432 7.49998 14.8704 7.5 15.0029C7.5 15.1355 7.44726 15.2627 7.35352 15.3564C7.25975 15.4502 7.13261 15.5029 7 15.5029H5C4.80832 15.49 4.61602 15.5149 4.43457 15.5791C4.23664 15.6492 4.05669 15.7627 3.9082 15.9111C3.75971 16.0596 3.64629 16.2395 3.57617 16.4375C3.51192 16.619 3.48705 16.8112 3.5 17.0029C3.48703 17.1946 3.51194 17.3869 3.57617 17.5684C3.64628 17.7663 3.75973 17.9462 3.9082 18.0947C4.0567 18.2432 4.23662 18.3566 4.43457 18.4268C4.61606 18.491 4.80828 18.5149 5 18.502V18.5029H17C17.663 18.5029 18.2987 18.7665 18.7676 19.2354C19.2364 19.7042 19.5 20.3399 19.5 21.0029C19.5 21.666 19.2364 22.3017 18.7676 22.7705C18.2987 23.2393 17.663 23.5029 17 23.5029H1C0.867391 23.5029 0.740252 23.4502 0.646484 23.3564C0.552744 23.2627 0.5 23.1355 0.5 23.0029C0.500023 22.8704 0.552737 22.7432 0.646484 22.6494C0.740248 22.5557 0.867411 22.5029 1 22.5029H17C17.3978 22.5029 17.7792 22.3448 18.0605 22.0635C18.3418 21.7822 18.5 21.4007 18.5 21.0029C18.5 20.6051 18.3418 20.2237 18.0605 19.9424C17.7792 19.6611 17.3978 19.5029 17 19.5029H4.98438C4.6553 19.5133 4.3276 19.4562 4.02148 19.335C3.71537 19.2138 3.4369 19.0316 3.2041 18.7988C2.97132 18.566 2.78916 18.2875 2.66797 17.9814C2.5468 17.6754 2.48966 17.3476 2.5 17.0186V16.9873C2.48965 16.6582 2.54677 16.3305 2.66797 16.0244C2.78917 15.7183 2.97131 15.4398 3.2041 15.207C3.4369 14.9742 3.71539 14.7921 4.02148 14.6709C4.32759 14.5497 4.65532 14.4926 4.98438 14.5029ZM15.5 4.50293C16.0251 4.50293 16.5454 4.6063 17.0303 4.80762C17.5151 5.00893 17.9556 5.30399 18.3262 5.67578L18.3271 5.67676C18.699 6.04743 18.994 6.48871 19.1953 6.97363C19.3965 7.45841 19.5 7.97806 19.5 8.50293C19.5 9.02798 19.3966 9.54828 19.1953 10.0332C18.994 10.518 18.6989 10.9585 18.3271 11.3291H18.3262C18.2247 11.4306 18.0351 11.5636 17.7441 11.7188C17.4605 11.8701 17.1089 12.0286 16.707 12.1895C15.9033 12.5112 14.9281 12.8321 13.958 13.124C12.0337 13.703 10.1641 14.155 9.75879 14.2549L9.75195 14.2471L9.74707 14.2432C9.84295 13.8347 10.2976 11.9547 10.8789 10.0264C11.1707 9.05838 11.4918 8.08704 11.8135 7.28711C11.9744 6.88698 12.133 6.5368 12.2842 6.25488C12.4392 5.96591 12.5709 5.77784 12.6719 5.67773L12.6738 5.67578C13.0444 5.30399 13.4849 5.00893 13.9697 4.80762C14.4546 4.6063 14.9749 4.50293 15.5 4.50293ZM16.2656 6.65527C15.9002 6.5039 15.4973 6.46384 15.1094 6.54102C14.7216 6.61823 14.3656 6.80927 14.0859 7.08887C13.8062 7.36857 13.6153 7.72532 13.5381 8.11328C13.461 8.50109 13.501 8.90326 13.6523 9.26855C13.8037 9.63389 14.0599 9.94629 14.3887 10.166C14.7176 10.3858 15.1044 10.5029 15.5 10.5029C16.0304 10.5029 16.539 10.2921 16.9141 9.91699C17.2891 9.54192 17.5 9.03334 17.5 8.50293C17.5 8.1074 17.3828 7.72047 17.1631 7.3916C16.9434 7.06283 16.6309 6.80664 16.2656 6.65527ZM23.4961 4.50684L23.4951 4.50781L21.0059 6.00098L18.001 2.99609L19.4941 0.507812L19.4951 0.505859L23.4961 4.50684Z" fill="#C7C8D5" stroke="#C7C8D5"/>
</svg>
